<?xml version="1.0" encoding="UTF-8"?>
<svg width="126px" height="45px" viewBox="0 0 126 45" version="1.1" xmlns="http://www.w3.org/2000/svg" xmlns:xlink="http://www.w3.org/1999/xlink">
    <!-- Generator: Sketch 39.1 (31720) - http://www.bohemiancoding.com/sketch -->
    <title>Group</title>
    <desc>Created with Sketch.</desc>
    <defs></defs>
    <g id="adesivo_5x5cm-copy" stroke="none" stroke-width="1" fill="none" fill-rule="evenodd">
        <g id="Artboard" transform="translate(-32.000000, -72.000000)" fill="#EF0C46">
            <g id="Group" transform="translate(32.000000, 72.000000)">
                <path d="M12.8823242,11.8769531 L12.8823242,14.8696289 L10.5883789,14.8696289 L9.83691406,21 L6.69921875,21 L7.45068359,14.8696289 L5.81591797,14.8696289 L5.06445312,21 L1.953125,21 L2.70458984,14.8696289 L0.727050781,14.8696289 L0.727050781,11.8769531 L3.07373047,11.8769531 L3.37695312,9.38525391 L1.42578125,9.38525391 L1.42578125,6.37939453 L3.75927734,6.37939453 L4.45800781,0.64453125 L7.56933594,0.64453125 L6.85742188,6.37939453 L8.4921875,6.37939453 L9.21728516,0.64453125 L12.3417969,0.64453125 L11.6298828,6.37939453 L13.5283203,6.37939453 L13.5283203,9.38525391 L11.2607422,9.38525391 L10.9575195,11.8769531 L12.8823242,11.8769531 Z M8.12304688,9.38525391 L6.48828125,9.38525391 L6.18505859,11.8769531 L7.83300781,11.8769531 L8.12304688,9.38525391 Z M27.199375,14.737793 L26.8829687,20.6176758 C25.6612829,21.1098657 24.5670556,21.355957 23.6002539,21.355957 C21.3238753,21.355957 19.4078788,20.5210044 17.852207,18.8510742 C16.1119639,16.9789945 15.2418554,14.3291187 15.2418554,10.9013672 C15.2418554,7.69334333 16.0592301,5.11817377 17.6940039,3.17578125 C19.3287777,1.24217783 21.5128379,0.275390625 24.24625,0.275390625 C25.1339497,0.275390625 26.0392141,0.442381143 26.9620703,0.776367188 L26.9620703,6.59033203 C26.1446834,5.77294513 25.3053363,5.36425781 24.4440039,5.36425781 C23.3189983,5.36425781 22.4401008,5.84325693 21.8072851,6.80126953 C21.1744695,7.76807124 20.8580664,9.10399538 20.8580664,10.809082 C20.8580664,11.635258 20.9371672,12.3735319 21.0953711,13.0239258 C21.253575,13.6743197 21.4798911,14.2236306 21.7743261,14.671875 C22.0687612,15.1201194 22.4313064,15.4628894 22.8619726,15.7001953 C23.2926388,15.9375012 23.7848214,16.0561523 24.3385351,16.0561523 C25.2877586,16.0561523 26.2413624,15.6167036 27.199375,14.737793 L27.199375,14.737793 Z M43.4016796,21 L37.7195507,21 L37.3108593,18.4160156 L33.6062695,18.4160156 L33.1580273,21 L27.4758984,21 L32.3670117,0.64453125 L39.0906445,0.64453125 L43.4016796,21 Z M36.6648632,14.0522461 L36.3089062,11.6791992 C36.3001171,11.6704101 36.2825391,11.551759 36.2561718,11.3232422 C36.2385936,11.1298818 36.1463094,10.3652411 35.9793164,9.02929688 C35.9617381,8.87988207 35.9397657,8.67553841 35.9133984,8.41625977 C35.8870311,8.15698113 35.8518752,7.82959182 35.8079296,7.43408203 L35.6365429,5.50927734 C35.6189647,5.69384858 35.594795,5.90038948 35.5640332,6.12890625 C35.5332713,6.35742302 35.5003126,6.60790879 35.4651562,6.88037109 C35.4036325,7.42529569 35.3596876,7.8032216 35.3333203,8.01416016 C35.3069529,8.22509871 35.289375,8.35253884 35.2805859,8.39648438 L34.8982617,10.8618164 L34.3445507,14.0522461 L36.6648632,14.0522461 Z M49.584453,21 L44.0868945,21 L44.0868945,0.64453125 L49.4130663,0.64453125 C52.0673765,0.64453125 54.0361068,1.18505319 55.3193163,2.26611328 C56.8310426,3.54053372 57.5868945,5.3115121 57.5868945,7.57910156 C57.5868945,10.0488405 56.7827033,11.8901307 55.1742968,13.1030273 C54.0756585,13.9204142 52.4980375,14.3291016 50.4413866,14.3291016 L49.584453,14.3291016 L49.584453,21 Z M49.584453,9.75439453 L49.8349413,9.76757812 C50.5029134,9.76757812 51.0346464,9.56323447 51.4301562,9.15454102 C51.825666,8.74584757 52.0234179,8.18555043 52.0234179,7.47363281 C52.0234179,6.7705043 51.8300604,6.19922095 51.4433398,5.75976562 C51.0566191,5.3115212 50.5644365,5.08740234 49.9667773,5.08740234 L49.584453,5.08740234 L49.584453,9.75439453 Z M64.0992577,21 L58.6016991,21 L58.6016991,0.64453125 L64.0992577,0.64453125 L64.0992577,21 Z M74.8831053,21 L69.280078,21 L64.6130858,0.64453125 L70.3874999,0.64453125 L71.389453,6.45849609 C71.7673846,8.68214002 72.0706042,11.1694198 72.299121,13.9204102 C72.3958011,12.6987244 72.5144523,11.5561577 72.655078,10.4926758 C72.7957037,9.4291939 72.9626942,8.3920949 73.1560546,7.38134766 L74.4612303,0.64453125 L80.4333983,0.64453125 L74.8831053,21 Z M94.7372655,21 L89.0551366,21 L88.6464452,18.4160156 L84.9418553,18.4160156 L84.4936131,21 L78.8114842,21 L83.7025975,0.64453125 L90.4262303,0.64453125 L94.7372655,21 Z M88.0004491,14.0522461 L87.644492,11.6791992 C87.6357029,11.6704101 87.618125,11.551759 87.5917577,11.3232422 C87.5741794,11.1298818 87.4818952,10.3652411 87.3149022,9.02929688 C87.297324,8.87988207 87.2753515,8.67553841 87.2489842,8.41625977 C87.2226169,8.15698113 87.187461,7.82959182 87.1435155,7.43408203 L86.9721287,5.50927734 C86.9545505,5.69384858 86.9303809,5.90038948 86.899619,6.12890625 C86.8688571,6.35742302 86.8358985,6.60790879 86.800742,6.88037109 C86.7392183,7.42529569 86.6952734,7.8032216 86.6689061,8.01416016 C86.6425388,8.22509871 86.6249608,8.35253884 86.6161717,8.39648438 L86.2338475,10.8618164 L85.6801366,14.0522461 L88.0004491,14.0522461 Z M109.898066,21 L103.952265,21 L101.236445,13.7490234 C101.210078,13.6259759 101.163936,13.4633799 101.098017,13.2612305 C101.032099,13.059081 100.950801,12.8173842 100.854121,12.5361328 L100.893672,13.8808594 L100.893672,21 L95.4224803,21 L95.4224803,0.64453125 L101.051875,0.64453125 C103.530403,0.64453125 105.384876,1.13231934 106.615351,2.10791016 C108.179812,3.35596327 108.962031,5.13133614 108.962031,7.43408203 C108.962031,9.89503184 107.911749,11.5956984 105.811152,12.5361328 L109.898066,21 Z M100.920039,10.0708008 L101.28918,10.0708008 C101.921995,10.0708008 102.449334,9.82910398 102.871211,9.34570312 C103.293088,8.86230227 103.504023,8.24707405 103.504023,7.5 C103.504023,5.97948458 102.708621,5.21923828 101.117793,5.21923828 L100.920039,5.21923828 L100.920039,10.0708008 Z M125.467558,21 L119.785429,21 L119.376738,18.4160156 L115.672148,18.4160156 L115.223906,21 L109.541777,21 L114.43289,0.64453125 L121.156523,0.64453125 L125.467558,21 Z M118.730742,14.0522461 L118.374785,11.6791992 C118.365996,11.6704101 118.348418,11.551759 118.322051,11.3232422 C118.304472,11.1298818 118.212188,10.3652411 118.045195,9.02929688 C118.027617,8.87988207 118.005644,8.67553841 117.979277,8.41625977 C117.95291,8.15698113 117.917754,7.82959182 117.873808,7.43408203 L117.702422,5.50927734 C117.684843,5.69384858 117.660674,5.90038948 117.629912,6.12890625 C117.59915,6.35742302 117.566191,6.60790879 117.531035,6.88037109 C117.469511,7.42529569 117.425566,7.8032216 117.399199,8.01416016 C117.372832,8.22509871 117.355254,8.35253884 117.346465,8.39648438 L116.96414,10.8618164 L116.410429,14.0522461 L118.730742,14.0522461 Z" id="#CAPIVARA"></path>
                <path d="M26.8671875,37.737793 L26.5507812,43.6176758 C25.3290955,44.1098657 24.2348681,44.355957 23.2680664,44.355957 C20.9916878,44.355957 19.0756914,43.5210044 17.5200195,41.8510742 C15.7797765,39.9789945 14.909668,37.3291187 14.909668,33.9013672 C14.909668,30.6933433 15.7270426,28.1181738 17.3618164,26.1757812 C18.9965902,24.2421778 21.1806504,23.2753906 23.9140625,23.2753906 C24.8017623,23.2753906 25.7070266,23.4423811 26.6298828,23.7763672 L26.6298828,29.590332 C25.8124959,28.7729451 24.9731488,28.3642578 24.1118164,28.3642578 C22.9868108,28.3642578 22.1079133,28.8432569 21.4750977,29.8012695 C20.842282,30.7680712 20.5258789,32.1039954 20.5258789,33.809082 C20.5258789,34.635258 20.6049797,35.3735319 20.7631836,36.0239258 C20.9213875,36.6743197 21.1477036,37.2236306 21.4421387,37.671875 C21.7365737,38.1201194 22.0991189,38.4628894 22.5297852,38.7001953 C22.9604514,38.9375012 23.452634,39.0561523 24.0063477,39.0561523 C24.9555712,39.0561523 25.9091749,38.6167036 26.8671875,37.737793 L26.8671875,37.737793 Z M43.0694922,33.8881836 C43.0694922,36.9907382 42.3619797,39.5131739 40.9469336,41.4555664 C39.5406765,43.3891698 37.7081753,44.355957 35.449375,44.355957 C33.4454587,44.355957 31.7272142,43.6132887 30.2945898,42.1279297 C28.492823,40.2470609 27.5919531,37.4258001 27.5919531,33.6640625 C27.5919531,30.0605289 28.5323734,27.3051853 30.4132422,25.3979492 C31.8107101,23.9829031 33.4674318,23.2753906 35.383457,23.2753906 C37.7301484,23.2753906 39.5978055,24.2333889 40.9864843,26.1494141 C42.3751632,28.0654393 43.0694922,30.6450033 43.0694922,33.8881836 L43.0694922,33.8881836 Z M37.3609961,33.9277344 C37.3609961,30.2450988 36.7106119,28.4038086 35.4098242,28.4038086 C34.7594303,28.4038086 34.2408808,28.8872022 33.8541601,29.8540039 C33.4762286,30.7504928 33.2872656,32.068839 33.2872656,33.809082 C33.2872656,35.5229578 33.4652423,36.8522902 33.8212011,37.7971191 C34.17716,38.7419481 34.6715398,39.2143555 35.3043554,39.2143555 C35.9547493,39.2143555 36.4557209,38.7485398 36.8072851,37.8168945 C37.1764276,36.8852492 37.3609961,35.5888755 37.3609961,33.9277344 L37.3609961,33.9277344 Z M44.5061718,44 L44.5061718,23.6445312 L49.2522656,23.6445312 C51.9680995,23.6445312 54.0818479,24.3740161 55.5935742,25.8330078 C57.5799122,27.7402439 58.5730664,30.4076977 58.5730664,33.8354492 C58.5730664,37.2104661 57.7337193,39.8163971 56.0549999,41.6533203 C54.6223756,43.2177813 52.4866548,44 49.6477734,44 L44.5061718,44 Z M50.0037304,39.0825195 C51.9724903,38.9858394 52.9568554,37.2895673 52.9568554,33.9936523 C52.9568554,32.3676677 52.7063696,31.0844774 52.2053906,30.144043 C51.7044115,29.1948195 51.0276605,28.7202148 50.1751171,28.7202148 L50.0037304,28.7202148 L50.0037304,39.0825195 Z M60.009746,44 L60.009746,23.6445312 L70.2270312,23.6445312 L70.2270312,28.4301758 L65.5073046,28.4301758 L65.5073046,31.3964844 L69.7392382,31.3964844 L69.7392382,35.9975586 L65.5073046,35.9975586 L65.5073046,39.1088867 L70.2270312,39.1088867 L70.2270312,44 L60.009746,44 Z M71.2286522,43.4990234 L71.2286522,37.1049805 C72.3097123,38.5815504 73.478646,39.3198242 74.7354882,39.3198242 C75.2100999,39.3198242 75.5968148,39.1945813 75.8956444,38.9440918 C76.194474,38.6936023 76.3438866,38.3793964 76.3438866,38.0014648 C76.3438866,37.4565402 76.0186946,36.9248073 75.3683007,36.40625 L74.4718163,35.7075195 C73.8741571,35.2592751 73.3643965,34.8132346 72.9425194,34.3693848 C72.5206423,33.9255349 72.1778723,33.4685082 71.9141991,32.998291 C71.6505259,32.5280738 71.4571685,32.042483 71.334121,31.5415039 C71.2110735,31.0405248 71.1495507,30.5131864 71.1495507,29.9594727 C71.1495507,29.0102492 71.369275,28.017095 71.8087304,26.9799805 C72.028458,26.4965796 72.2833383,26.0549336 72.5733788,25.6550293 C72.8634193,25.255125 73.1974003,24.9013687 73.5753319,24.59375 C74.6124465,23.7148394 75.8648754,23.2753906 77.3326561,23.2753906 C78.642233,23.2753906 79.9605792,23.6225551 81.2877343,24.3168945 L81.2877343,30.5395508 C80.8394898,29.8452114 80.3297293,29.2980977 79.7584374,28.8981934 C79.1871455,28.498289 78.6246511,28.2983398 78.0709374,28.2983398 C77.6490603,28.2983398 77.3018958,28.4213855 77.0294335,28.6674805 C76.7481821,28.9047863 76.6075585,29.190428 76.6075585,29.5244141 C76.6075585,30.0693387 76.9810899,30.6098606 77.728164,31.1459961 L78.5982811,31.7919922 C79.7584432,32.6269573 80.5890013,33.4838823 81.0899804,34.362793 C81.5997485,35.2417036 81.8546288,36.2700136 81.8546288,37.4477539 C81.8546288,39.4516702 81.2437951,41.1039974 80.0221093,42.4047852 C78.8004235,43.7055729 77.2535639,44.355957 75.3814843,44.355957 C74.0894856,44.355957 72.7052221,44.0703154 71.2286522,43.4990234 L71.2286522,43.4990234 Z" id="CODES"></path>
            </g>
        </g>
    </g>
</svg>